<svg width="1024" height="1440" viewBox="0 0 1024 1440" fill="none" xmlns="http://www.w3.org/2000/svg">
<g clip-path="url(#clip0)">
<rect width="1440" height="1024" transform="translate(0 1440) rotate(-90)" fill="white"/>
<path d="M229 483L412.318 932.5M500 1147.5L412.318 932.5M593 1147.5L701.749 839.5M742 725.5L719 797M701.749 839.5L488.5 578M701.749 839.5L719 797M412.318 932.5L103 797M632.015 1037L941.5 880M719 797L941.5 562.5M517.042 613L677.531 448M756 367L677.531 448M677.531 448L395.5 291.5" stroke="#A25F22" stroke-width="18"/>
<g style="mix-blend-mode:darken">
<path d="M399.2 1421L274 1128H763L651.654 1421H399.2Z" fill="#2C2424"/>
<path d="M399.2 1421L274 1128H763L651.654 1421H399.2Z" stroke="black"/>
</g>
<g clip-path="url(#clip1)">
<path d="M511.873 243.039C511.613 242.41 511 242 510.319 242C445.064 242 438.001 269.05 438.001 280.682C438.001 295.771 449.491 305.909 466.592 305.909C488.19 305.909 492.714 285.357 495.142 274.314C497.503 263.074 503.207 252.81 511.506 244.869C511.987 244.389 512.132 243.667 511.873 243.039Z" fill="#4CAF50"/>
<path d="M439.682 316C438.754 316 438.001 315.247 438.001 314.318C438.001 304.318 455.34 272.232 482.676 258.986C483.512 258.581 484.518 258.931 484.923 259.767C485.328 260.603 484.979 261.609 484.143 262.014C456.538 275.391 441.364 306.457 441.364 314.318C441.364 315.247 440.611 316 439.682 316Z" fill="#388E3C"/>
</g>
<g clip-path="url(#clip2)">
<path d="M475.522 429.243C475.516 429.923 475.921 430.54 476.548 430.806C536.645 456.233 553.691 434.074 558.223 423.362C564.103 409.465 557.471 395.651 541.722 388.987C521.832 380.571 509.657 397.736 503.117 406.959C496.563 416.392 487.31 423.622 476.573 427.701C475.943 427.956 475.529 428.564 475.522 429.243Z" fill="#4CAF50"/>
<path d="M570.437 390.18C571.292 390.542 571.692 391.529 571.33 392.384C567.433 401.594 538.962 424.387 508.625 425.934C507.697 425.981 506.907 425.267 506.859 424.339C506.812 423.412 507.526 422.621 508.454 422.574C539.09 421.011 565.169 398.313 568.232 391.073C568.594 390.218 569.581 389.818 570.437 390.18Z" fill="#388E3C"/>
</g>
<g clip-path="url(#clip3)">
<path d="M691.414 306.65C690.742 306.544 690.072 306.854 689.717 307.434C655.684 363.111 675.081 383.246 685.005 389.312C697.879 397.182 712.522 392.665 721.441 378.075C732.705 359.647 717.529 345.068 709.373 337.237C701.014 329.36 695.231 319.14 692.784 307.918C692.625 307.257 692.085 306.757 691.414 306.65Z" fill="#4CAF50"/>
<path d="M716.016 406.297C715.532 407.09 714.497 407.339 713.704 406.855C705.172 401.64 686.838 370.111 689.794 339.879C689.884 338.954 690.707 338.278 691.631 338.368C692.556 338.459 693.232 339.282 693.141 340.206C690.158 370.737 708.751 399.885 715.459 403.985C716.251 404.47 716.501 405.505 716.016 406.297Z" fill="#388E3C"/>
</g>
<g clip-path="url(#clip4)">
<path d="M641.873 599.039C641.613 598.41 641 598 640.319 598C575.064 598 568.001 625.05 568.001 636.682C568.001 651.771 579.491 661.909 596.592 661.909C618.19 661.909 622.714 641.357 625.142 630.314C627.503 619.074 633.207 608.81 641.506 600.869C641.987 600.389 642.132 599.667 641.873 599.039Z" fill="#4CAF50"/>
<path d="M569.682 672C568.754 672 568.001 671.247 568.001 670.318C568.001 660.318 585.34 628.232 612.676 614.986C613.512 614.581 614.518 614.931 614.923 615.767C615.328 616.603 614.979 617.609 614.143 618.014C586.538 631.391 571.364 662.457 571.364 670.318C571.364 671.247 570.611 672 569.682 672Z" fill="#388E3C"/>
</g>
<g clip-path="url(#clip5)">
<path d="M330.873 479.039C330.613 478.41 330 478 329.319 478C264.064 478 257.001 505.05 257.001 516.682C257.001 531.771 268.491 541.909 285.592 541.909C307.19 541.909 311.714 521.357 314.142 510.314C316.503 499.074 322.207 488.81 330.506 480.869C330.987 480.389 331.132 479.667 330.873 479.039Z" fill="#4CAF50"/>
<path d="M258.682 552C257.754 552 257.001 551.247 257.001 550.318C257.001 540.318 274.34 508.232 301.676 494.986C302.512 494.581 303.518 494.931 303.923 495.767C304.328 496.603 303.979 497.609 303.143 498.014C275.538 511.391 260.364 542.457 260.364 550.318C260.364 551.247 259.611 552 258.682 552Z" fill="#388E3C"/>
</g>
<g clip-path="url(#clip6)">
<path d="M235.873 749.039C235.613 748.41 235 748 234.319 748C169.064 748 162.001 775.05 162.001 786.682C162.001 801.771 173.491 811.909 190.592 811.909C212.19 811.909 216.714 791.357 219.142 780.314C221.503 769.074 227.207 758.81 235.506 750.869C235.987 750.389 236.132 749.667 235.873 749.039Z" fill="#4CAF50"/>
<path d="M163.682 822C162.754 822 162.001 821.247 162.001 820.318C162.001 810.318 179.34 778.232 206.676 764.986C207.512 764.581 208.518 764.931 208.923 765.767C209.328 766.603 208.979 767.609 208.143 768.014C180.538 781.391 165.364 812.457 165.364 820.318C165.364 821.247 164.611 822 163.682 822Z" fill="#388E3C"/>
</g>
<g clip-path="url(#clip7)">
<path d="M907.704 812.977C907.179 812.544 906.444 812.47 905.844 812.79C848.237 843.442 854.707 870.641 860.171 880.909C867.259 894.23 882.165 897.782 897.262 889.749C916.328 879.604 910.668 859.335 907.625 848.446C904.429 837.414 904.643 825.673 908.239 814.765C908.438 814.115 908.227 813.41 907.704 812.977Z" fill="#4CAF50"/>
<path d="M878.246 911.298C877.426 911.734 876.408 911.423 875.971 910.603C871.274 901.775 871.509 865.305 889.42 840.77C889.968 840.02 891.02 839.856 891.77 840.403C892.52 840.951 892.684 842.003 892.137 842.754C874.05 867.531 875.248 902.084 878.941 909.023C879.377 909.843 879.066 910.862 878.246 911.298Z" fill="#388E3C"/>
</g>
<g clip-path="url(#clip8)">
<path d="M884.689 526.871C884.081 526.563 883.349 526.652 882.833 527.096C833.356 569.643 845.638 594.758 853.222 603.577C863.06 615.018 878.382 615.213 891.348 604.063C907.724 589.981 897.754 571.449 892.395 561.492C886.856 551.43 884.488 539.929 885.604 528.497C885.655 527.82 885.294 527.178 884.689 526.871Z" fill="#4CAF50"/>
<path d="M877.525 629.259C876.821 629.865 875.759 629.785 875.153 629.081C868.633 621.499 860.859 585.865 872.949 557.999C873.319 557.147 874.309 556.755 875.162 557.125C876.014 557.495 876.405 558.485 876.035 559.338C863.827 587.479 872.578 620.928 877.703 626.888C878.309 627.592 878.229 628.654 877.525 629.259Z" fill="#388E3C"/>
</g>
<g clip-path="url(#clip9)">
<path d="M910.579 732.869C910.984 732.322 911.02 731.585 910.67 731.001C877.079 675.057 850.252 682.925 840.28 688.913C827.343 696.68 824.567 711.75 833.369 726.411C844.487 744.927 864.436 738.227 875.153 734.624C886.005 730.862 897.742 730.469 908.821 733.496C909.48 733.661 910.173 733.414 910.579 732.869Z" fill="#4CAF50"/>
<path d="M810.866 708.535C810.388 707.739 810.646 706.706 811.442 706.227C820.016 701.08 856.45 699.429 881.878 716.046C882.655 716.555 882.873 717.597 882.365 718.375C881.857 719.152 880.815 719.37 880.037 718.862C854.358 702.081 819.913 705.065 813.174 709.111C812.377 709.589 811.344 709.331 810.866 708.535Z" fill="#388E3C"/>
</g>
<g clip-path="url(#clip10)">
<path d="M863.564 1027.29C864.151 1026.95 864.471 1026.28 864.376 1025.61C855.261 960.995 827.489 957.779 815.972 959.404C801.031 961.512 792.597 974.305 794.986 991.238C798.003 1012.62 818.985 1014.23 830.259 1015.1C841.719 1015.86 852.679 1020.08 861.701 1027.19C862.243 1027.6 862.978 1027.64 863.564 1027.29Z" fill="#4CAF50"/>
<path d="M781.235 966.002C781.105 965.083 781.746 964.232 782.665 964.102C792.568 962.705 826.761 975.393 843.695 1000.61C844.213 1001.38 844.008 1002.43 843.236 1002.95C842.465 1003.46 841.42 1003.26 840.902 1002.49C823.8 977.02 790.919 966.335 783.135 967.433C782.215 967.562 781.365 966.922 781.235 966.002Z" fill="#388E3C"/>
</g>
<g clip-path="url(#clip11)">
<path d="M741.564 541.294C742.151 540.949 742.471 540.284 742.376 539.61C733.261 474.995 705.489 471.779 693.972 473.404C679.031 475.512 670.597 488.305 672.986 505.238C676.003 526.624 696.985 528.234 708.259 529.096C719.719 529.863 730.679 534.078 739.701 541.187C740.243 541.595 740.978 541.638 741.564 541.294Z" fill="#4CAF50"/>
<path d="M659.235 480.002C659.105 479.083 659.746 478.232 660.665 478.102C670.568 476.705 704.761 489.393 721.695 514.611C722.213 515.382 722.008 516.427 721.236 516.945C720.465 517.463 719.42 517.257 718.902 516.486C701.8 491.02 668.919 480.335 661.135 481.433C660.215 481.562 659.365 480.922 659.235 480.002Z" fill="#388E3C"/>
</g>
<g clip-path="url(#clip12)">
<path d="M256.992 975.5C257.318 976.097 257.972 976.439 258.649 976.365C323.523 969.33 327.629 941.676 326.375 930.112C324.749 915.111 312.232 906.271 295.231 908.115C273.759 910.443 271.477 931.363 270.254 942.603C269.118 954.033 264.554 964.852 257.159 973.641C256.733 974.17 256.667 974.903 256.992 975.5Z" fill="#4CAF50"/>
<path d="M320.896 895.181C321.819 895.081 322.649 895.749 322.749 896.672C323.827 906.614 310.048 940.382 284.299 956.498C283.512 956.991 282.474 956.752 281.981 955.964C281.489 955.177 281.727 954.139 282.515 953.647C308.517 937.371 320.253 904.85 319.405 897.035C319.305 896.111 319.973 895.282 320.896 895.181Z" fill="#388E3C"/>
</g>
<g clip-path="url(#clip13)">
<path d="M575.045 877.285C574.432 877.581 574.057 878.217 574.096 878.896C577.815 944.045 605.224 949.555 616.837 948.892C631.902 948.032 641.368 935.982 640.393 918.91C639.162 897.347 618.386 894.001 607.223 892.206C595.866 890.49 585.293 885.38 576.893 877.547C576.386 877.095 575.657 876.992 575.045 877.285Z" fill="#4CAF50"/>
<path d="M652.002 945.2C652.055 946.127 651.346 946.922 650.418 946.975C640.435 947.545 607.413 932.063 592.63 905.526C592.178 904.714 592.47 903.69 593.281 903.238C594.093 902.786 595.117 903.077 595.569 903.889C610.498 930.687 642.379 944.065 650.227 943.617C651.154 943.564 651.949 944.273 652.002 945.2Z" fill="#388E3C"/>
</g>
<g clip-path="url(#clip14)">
<path d="M484.503 834.089C484.304 833.438 483.733 832.971 483.055 832.906C418.099 826.675 408.484 852.927 407.374 864.505C405.933 879.525 416.402 890.714 433.425 892.347C454.924 894.41 461.39 874.384 464.862 863.624C468.285 852.66 474.944 842.987 483.963 835.876C484.487 835.444 484.7 834.739 484.503 834.089Z" fill="#4CAF50"/>
<path d="M405.675 899.822C404.75 899.734 404.072 898.912 404.161 897.988C405.116 888.033 425.441 857.75 453.917 847.175C454.788 846.852 455.756 847.296 456.079 848.167C456.402 849.037 455.959 850.005 455.088 850.329C426.331 861.009 408.26 890.484 407.509 898.309C407.421 899.234 406.599 899.911 405.675 899.822Z" fill="#388E3C"/>
</g>
<g clip-path="url(#clip15)">
<path d="M546.86 999.043C546.577 998.425 545.948 998.038 545.268 998.063C480.06 1000.51 474.015 1027.81 474.452 1039.43C475.018 1054.51 486.88 1064.21 503.969 1063.57C525.551 1062.76 529.302 1042.05 531.314 1030.92C533.252 1019.6 538.567 1009.13 546.562 1000.89C547.024 1000.39 547.142 999.661 546.86 999.043Z" fill="#4CAF50"/>
<path d="M477.457 1074.66C476.529 1074.7 475.748 1073.97 475.713 1073.04C475.338 1063.05 491.462 1030.34 518.282 1016.07C519.102 1015.64 520.121 1015.95 520.557 1016.77C520.993 1017.59 520.682 1018.61 519.861 1019.04C492.777 1033.45 478.78 1065.06 479.074 1072.92C479.109 1073.85 478.385 1074.63 477.457 1074.66Z" fill="#388E3C"/>
</g>
<g clip-path="url(#clip16)">
<path d="M404.86 640.043C404.577 639.425 403.948 639.038 403.268 639.063C338.06 641.511 332.015 668.807 332.452 680.43C333.018 695.509 344.88 705.209 361.969 704.567C383.551 703.757 387.302 683.05 389.314 671.924C391.252 660.603 396.567 650.132 404.562 641.886C405.024 641.388 405.142 640.661 404.86 640.043Z" fill="#4CAF50"/>
<path d="M335.457 715.66C334.529 715.695 333.748 714.971 333.713 714.043C333.338 704.05 349.462 671.336 376.282 657.074C377.102 656.638 378.121 656.95 378.557 657.77C378.993 658.59 378.682 659.608 377.861 660.044C350.777 674.448 336.78 706.062 337.074 713.917C337.109 714.845 336.385 715.626 335.457 715.66Z" fill="#388E3C"/>
</g>
<g clip-path="url(#clip17)">
<path d="M571.992 837.5C572.318 838.097 572.972 838.439 573.649 838.365C638.523 831.33 642.629 803.676 641.375 792.112C639.749 777.111 627.232 768.271 610.231 770.115C588.759 772.443 586.477 793.363 585.254 804.603C584.118 816.033 579.554 826.852 572.159 835.641C571.733 836.17 571.667 836.903 571.992 837.5Z" fill="#4CAF50"/>
<path d="M635.896 757.181C636.819 757.081 637.649 757.749 637.749 758.672C638.827 768.614 625.048 802.382 599.299 818.498C598.512 818.991 597.474 818.752 596.981 817.964C596.489 817.177 596.727 816.139 597.515 815.646C623.517 799.371 635.253 766.85 634.405 759.035C634.305 758.111 634.973 757.282 635.896 757.181Z" fill="#388E3C"/>
</g>
<g clip-path="url(#clip18)">
<path d="M439.992 684.5C440.318 685.097 440.972 685.439 441.649 685.365C506.523 678.33 510.629 650.676 509.375 639.112C507.749 624.111 495.232 615.271 478.231 617.115C456.759 619.443 454.477 640.363 453.254 651.603C452.118 663.033 447.554 673.852 440.159 682.641C439.733 683.17 439.667 683.903 439.992 684.5Z" fill="#4CAF50"/>
<path d="M503.896 604.181C504.819 604.081 505.649 604.749 505.749 605.672C506.827 615.614 493.048 649.382 467.299 665.498C466.512 665.991 465.474 665.752 464.981 664.964C464.489 664.177 464.727 663.139 465.515 662.646C491.517 646.371 503.253 613.85 502.405 606.035C502.305 605.111 502.973 604.282 503.896 604.181Z" fill="#388E3C"/>
</g>
<g clip-path="url(#clip19)">
<path d="M206.992 687.5C207.318 688.097 207.972 688.439 208.649 688.365C273.523 681.33 277.629 653.676 276.375 642.112C274.749 627.111 262.232 618.271 245.231 620.115C223.759 622.443 221.477 643.363 220.254 654.603C219.118 666.033 214.554 676.852 207.159 685.641C206.733 686.17 206.667 686.903 206.992 687.5Z" fill="#4CAF50"/>
<path d="M270.896 607.181C271.819 607.081 272.649 607.749 272.749 608.672C273.827 618.614 260.048 652.382 234.299 668.498C233.512 668.991 232.474 668.752 231.981 667.964C231.489 667.177 231.727 666.139 232.515 665.646C258.517 649.371 270.253 616.85 269.405 609.035C269.305 608.111 269.973 607.282 270.896 607.181Z" fill="#388E3C"/>
</g>
<g clip-path="url(#clip20)">
<path d="M273.992 842.5C274.318 843.097 274.972 843.439 275.649 843.365C340.523 836.33 344.629 808.676 343.375 797.112C341.749 782.111 329.232 773.271 312.231 775.115C290.759 777.443 288.477 798.363 287.254 809.603C286.118 821.033 281.554 831.852 274.159 840.641C273.733 841.17 273.667 841.903 273.992 842.5Z" fill="#4CAF50"/>
<path d="M337.896 762.181C338.819 762.081 339.649 762.749 339.749 763.672C340.827 773.614 327.048 807.382 301.299 823.498C300.512 823.991 299.474 823.752 298.981 822.964C298.489 822.177 298.727 821.139 299.515 820.646C325.517 804.371 337.253 771.85 336.405 764.035C336.305 763.111 336.973 762.282 337.896 762.181Z" fill="#388E3C"/>
</g>
</g>
<defs>
<clipPath id="clip0">
<rect width="1440" height="1024" fill="white" transform="translate(0 1440) rotate(-90)"/>
</clipPath>
<clipPath id="clip1">
<rect width="74" height="74" fill="white" transform="translate(438 242)"/>
</clipPath>
<clipPath id="clip2">
<rect width="74" height="74" fill="white" transform="translate(543.151 458.986) rotate(-157.066)"/>
</clipPath>
<clipPath id="clip3">
<rect width="74" height="74" fill="white" transform="translate(652 369.139) rotate(-58.5646)"/>
</clipPath>
<clipPath id="clip4">
<rect width="74" height="74" fill="white" transform="translate(568 598)"/>
</clipPath>
<clipPath id="clip5">
<rect width="74" height="74" fill="white" transform="translate(257 478)"/>
</clipPath>
<clipPath id="clip6">
<rect width="74" height="74" fill="white" transform="translate(162 748)"/>
</clipPath>
<clipPath id="clip7">
<rect width="74" height="74" fill="white" transform="translate(842 846.761) rotate(-28.0175)"/>
</clipPath>
<clipPath id="clip8">
<rect width="74" height="74" fill="white" transform="translate(828 574.249) rotate(-40.6937)"/>
</clipPath>
<clipPath id="clip9">
<rect width="74" height="74" fill="white" transform="translate(873.443 669) rotate(59.0182)"/>
</clipPath>
<clipPath id="clip10">
<rect width="74" height="74" fill="white" transform="translate(854.275 954) rotate(81.9706)"/>
</clipPath>
<clipPath id="clip11">
<rect width="74" height="74" fill="white" transform="translate(732.275 468) rotate(81.9706)"/>
</clipPath>
<clipPath id="clip12">
<rect width="74" height="74" fill="white" transform="translate(330.547 968.569) rotate(173.811)"/>
</clipPath>
<clipPath id="clip13">
<rect width="74" height="74" fill="white" transform="translate(578.218 951.098) rotate(-93.2677)"/>
</clipPath>
<clipPath id="clip14">
<rect width="74" height="74" fill="white" transform="translate(411.067 826) rotate(5.47996)"/>
</clipPath>
<clipPath id="clip15">
<rect width="74" height="74" fill="white" transform="translate(473 1000.78) rotate(-2.14958)"/>
</clipPath>
<clipPath id="clip16">
<rect width="74" height="74" fill="white" transform="translate(331 641.776) rotate(-2.14958)"/>
</clipPath>
<clipPath id="clip17">
<rect width="74" height="74" fill="white" transform="translate(645.547 830.569) rotate(173.811)"/>
</clipPath>
<clipPath id="clip18">
<rect width="74" height="74" fill="white" transform="translate(513.547 677.569) rotate(173.811)"/>
</clipPath>
<clipPath id="clip19">
<rect width="74" height="74" fill="white" transform="translate(280.547 680.569) rotate(173.811)"/>
</clipPath>
<clipPath id="clip20">
<rect width="74" height="74" fill="white" transform="translate(347.547 835.569) rotate(173.811)"/>
</clipPath>
</defs>
</svg>
