<svg width="1045" height="412" viewBox="0 0 1045 412" fill="none" xmlns="http://www.w3.org/2000/svg">
<rect width="1045" height="412" fill="#E5E5E5"/>
<rect width="1045" height="412" fill="white"/>
<path d="M261.568 148V167.584H247.744L216.928 364H179.488L148.384 167.872L117.28 364H79.84L49.024 167.584H35.2V148H82.72V167.584H71.2L98.56 344.416L128.8 148H167.968L198.208 344.416L225.568 167.584H214.048V148H261.568ZM382.902 344.416V364H282.678C272.886 364 266.262 362.08 262.806 358.24C259.734 354.784 258.198 348.256 258.198 338.656V328C258.198 321.088 259.062 316.384 260.79 313.888C263.286 310.24 268.95 305.728 277.782 300.352L341.142 260.896V239.584H284.694V256.288H266.262V220H338.262C348.054 220 354.87 222.112 358.71 226.336C362.742 230.56 364.758 236.704 364.758 244.768V344.416H382.902ZM341.142 283.936L281.238 321.376V344.416H341.142V283.936ZM449.765 167.584V220H473.093V240.736H449.765V344.416H477.125V364H452.933C444.293 364 437.861 361.792 433.637 357.376C429.413 352.768 427.301 344.992 427.301 334.048V240.736H405.989V220H427.301V167.584H449.765ZM500.275 248.224C500.275 229.216 510.163 219.712 529.939 219.712H578.611C588.019 219.712 594.835 221.536 599.059 225.184C603.283 228.832 605.395 235.552 605.395 245.344V272.128L523.315 323.968V344.416H582.643V327.712H605.395V342.976C605.395 348.736 603.571 353.728 599.923 357.952C596.467 361.984 590.611 364 582.355 364H523.315C515.059 364 509.107 361.984 505.459 357.952C502.003 353.728 500.275 348.736 500.275 342.976V248.224ZM523.315 300.64L582.355 263.488V239.584H523.315V300.64ZM718.534 220C733.51 220 740.998 227.392 740.998 242.176V267.808H717.67V239.872L672.742 268.384V344.416H686.854V364H631.27V344.416H649.414V239.296H631.27V219.712H672.742V245.056L708.166 222.88C711.238 220.96 714.694 220 718.534 220Z" fill="black"/>
<path d="M821.6 313.4C829.92 313.4 834.08 317.507 834.08 325.72V384.12H844.32V395H813.44V384.12H821.12V324.6L791.84 342.84V384.12H799.68V395H771.04V384.12H778.72L778.88 383.48V324.44L749.44 342.84V384.12H757.28V395H726.4V384.12H736.48V325.72H726.4V315H749.44V330.2L773.6 315C775.307 313.933 777.227 313.4 779.36 313.4C787.68 313.4 791.84 317.507 791.84 325.72V330.04L815.84 315C817.547 313.933 819.467 313.4 821.6 313.4ZM858.781 330.68C858.781 320.12 864.275 314.84 875.261 314.84H902.301C907.528 314.84 911.315 315.853 913.661 317.88C916.008 319.907 917.181 323.64 917.181 329.08V343.96L871.581 372.76V384.12H904.541V374.84H917.181V383.32C917.181 386.52 916.168 389.293 914.141 391.64C912.221 393.88 908.968 395 904.381 395H871.581C866.995 395 863.688 393.88 861.661 391.64C859.741 389.293 858.781 386.52 858.781 383.32V330.68ZM871.581 359.8L904.381 339.16V325.88H871.581V359.8Z" fill="black"/>
<path d="M1015.62 65.09C1014.85 63.2202 1013.03 62.0005 1011 62C817.002 62 796.002 142.42 796.002 177C796.002 221.86 830.162 252 881.002 252C945.212 252 958.662 190.9 965.882 158.07C972.9 124.652 989.859 94.1366 1014.53 70.5298C1015.96 69.103 1016.39 66.957 1015.62 65.09Z" fill="#4CAF50"/>
<path d="M801.002 282C798.241 282 796.002 279.761 796.002 277C796.002 247.27 847.552 151.88 928.822 112.5C931.307 111.296 934.298 112.334 935.502 114.82C936.706 117.305 935.667 120.296 933.182 121.5C851.112 161.27 806.002 253.63 806.002 277C806.002 279.762 803.763 282 801.002 282Z" fill="#388E3C"/>
<rect x="673" y="178" width="69" height="98" fill="white"/>
<path d="M675.123 231.25H696.998C698.206 231.25 699.185 232.229 699.185 233.438V250.937C699.185 252.146 698.206 253.125 696.998 253.125H675.123C673.915 253.125 672.935 252.146 672.935 250.937V233.438C672.935 232.229 673.915 231.25 675.123 231.25Z" fill="#90A4AE"/>
<path d="M731.998 231.25H723.248C722.04 231.25 721.06 232.229 721.06 233.438V250.938C721.06 252.146 722.04 253.125 723.248 253.125H727.623C731.247 253.125 734.185 256.063 734.185 259.688V268.438C734.185 269.646 735.165 270.625 736.373 270.625H753.873C755.081 270.625 756.06 269.646 756.06 268.438V255.313C756.046 242.029 745.281 231.265 731.998 231.25Z" fill="#90A4AE"/>
<path d="M746.925 280.32C746.161 279.326 744.736 279.139 743.741 279.904C743.585 280.024 743.445 280.164 743.325 280.32C741.798 282.508 734.19 293.813 734.19 299.063C734.19 305.103 739.087 310 745.127 310C751.168 310 756.065 305.103 756.065 299.063C756.06 293.813 748.448 282.529 746.925 280.32Z" fill="#2196F3"/>
<path d="M710.123 226.875C708.915 226.875 707.935 225.896 707.935 224.687V213.864C707.935 212.656 708.915 211.676 710.123 211.676C711.331 211.676 712.31 212.656 712.31 213.864V224.687C712.31 225.896 711.331 226.875 710.123 226.875Z" fill="#455A64"/>
<path d="M705.748 222.5H714.498C720.539 222.5 725.435 227.397 725.435 233.437V250.937C725.435 256.978 720.539 261.875 714.498 261.875H705.748C699.707 261.875 694.81 256.978 694.81 250.937V233.438C694.81 227.397 699.707 222.5 705.748 222.5Z" fill="#607D8B"/>
<path d="M723.248 205C718.824 205.294 714.433 205.963 710.123 206.999C705.812 205.963 701.422 205.294 696.998 205C693.373 205 690.435 207.938 690.435 211.562C690.435 215.187 693.373 218.125 696.998 218.125C701.422 217.831 705.812 217.162 710.123 216.126C714.433 217.162 718.824 217.831 723.248 218.125C726.872 218.125 729.81 215.187 729.81 211.562C729.81 207.938 726.872 205 723.248 205Z" fill="#607D8B"/>
</svg>
